<svg preserveAspectRatio="none" overflow="visible" style="display: block;" width="48" height="48" viewBox="0 0 48 48" fill="none" xmlns="http://www.w3.org/2000/svg">
<g id="Me_Unselected">
<g id="Rectangle 2221">
</g>
<path id="Me" d="M19 44C21.2082 44 22.9997 45.7893 23 48H6V44H19ZM42 48H29C26.7905 47.9999 25 46.2084 25 44H42V48ZM24 1C34.4934 1 43 9.50659 43 20C43 30.4934 34.4934 39 24 39C13.5066 39 5 30.4934 5 20C5 9.50659 13.5066 1 24 1ZM24 5.22266C15.8385 5.22266 9.22278 11.8386 9.22266 20C9.22266 28.1615 15.8385 34.7783 24 34.7783C32.1615 34.7783 38.7773 28.1615 38.7773 20C38.7772 11.8386 32.1615 5.22267 24 5.22266Z" fill="#999999"/>
</g>
</svg>
