<svg preserveAspectRatio="none" overflow="visible" style="display: block;" width="30.5449" height="21.9312" viewBox="0 0 30.5449 21.9312" fill="none" xmlns="http://www.w3.org/2000/svg">
<path id="Wifi" d="M10.8545 16.8013C13.4056 14.6436 17.1413 14.6436 19.6924 16.8013C19.8206 16.9173 19.8958 17.0806 19.8994 17.2535C19.903 17.4265 19.8354 17.5942 19.7119 17.7154L15.7168 21.7466C15.5997 21.865 15.4399 21.9312 15.2735 21.9312C15.107 21.9312 14.9472 21.865 14.8301 21.7466L10.835 17.7154C10.7116 17.5941 10.6438 17.4265 10.6475 17.2535C10.6512 17.0806 10.7261 16.9173 10.8545 16.8013ZM5.52345 11.4234C11.0198 6.31064 19.5319 6.31064 25.0283 11.4234C25.1522 11.5433 25.2229 11.7081 25.2246 11.8804C25.2263 12.0528 25.1586 12.2191 25.0371 12.3414L22.7285 14.6744C22.4906 14.9126 22.1055 14.9171 21.8613 14.6851C20.0564 13.0509 17.7083 12.1459 15.2735 12.1461C12.8403 12.1471 10.4941 13.052 8.69044 14.6851C8.44632 14.9171 8.06123 14.9126 7.82326 14.6744L5.51466 12.3414C5.39287 12.2192 5.32562 12.0529 5.32716 11.8804C5.32879 11.708 5.39945 11.5433 5.52345 11.4234ZM0.192397 6.05915C8.62248 -2.01982 21.9223 -2.01961 30.3526 6.05915C30.4745 6.17911 30.5439 6.34316 30.5449 6.51423C30.5459 6.68524 30.4788 6.84984 30.3584 6.97126L28.0459 9.30524C27.8077 9.54442 27.4215 9.54676 27.1797 9.3111C23.9678 6.25758 19.7052 4.55544 15.2735 4.55524C10.8414 4.55524 6.57849 6.25748 3.36622 9.3111C3.12451 9.54721 2.73709 9.54505 2.49904 9.30524L0.186537 6.97126C0.0661943 6.84975 -0.00111126 6.68525 1.38832e-05 6.51423C0.00117 6.34311 0.0703067 6.17906 0.192397 6.05915Z" fill="black"/>
</svg>
